<!-- Instrucciones para crear el ícono de SmartSave -->

<!--
Este archivo SVG debe guardarse como "app_icon.svg" en la carpeta src/main/resources/images/
También debe exportarse como PNG con el nombre "app_icon.png" en la misma ubicación
-->

<svg width="80" height="80" viewBox="0 0 80 80" xmlns="http://www.w3.org/2000/svg">
    <!-- Fondo oscuro -->
    <rect width="80" height="80" rx="10" fill="#1A1A25" />

    <!-- Ventana -->
    <rect x="15" y="10" width="50" height="40" rx="5" fill="#25253A" stroke="#FF00FF" stroke-width="2" />

    <!-- Barra de título -->
    <rect x="15" y="10" width="50" height="10" rx="5" fill="#FF00FF" />

    <!-- Botones de la ventana -->
    <circle cx="20" cy="15" r="2" fill="#25253A" />
    <circle cx="27" cy="15" r="2" fill="#25253A" />
    <circle cx="34" cy="15" r="2" fill="#25253A" />

    <!-- Engranaje principal -->
    <path d="M40 35 L40 65 M30 55 L50 55" stroke="#FF00FF" stroke-width="4" />
    <circle cx="40" cy="55" r="15" fill="none" stroke="#FF00FF" stroke-width="3" />

    <!-- Dientes del engranaje -->
    <path d="M40 40 L40 30 M50 55 L60 55 M40 70 L40 80 M30 55 L20 55 M46 47 L56 37 M47 63 L57 73 M33 63 L23 73 M34 47 L24 37" stroke="#FF00FF" stroke-width="2" />

    <!-- Brillo y efectos -->
    <circle cx="40" cy="55" r="8" fill="#4050FF" opacity="0.5" />
    <circle cx="40" cy="55" r="5" fill="#FF00FF" opacity="0.3" />

    <!-- Haz de luz -->
    <path d="M52 43 L58 37" stroke="#FF00FF" stroke-width="4" stroke-linecap="round" opacity="0.7" />
</svg>
