<svg width="80" height="80" viewBox="0 0 80 80" xmlns="http://www.w3.org/2000/svg">
    <!-- Definimos una cuadrícula de píxeles (cada píxel es de 4x4) -->
    <!-- Fondo oscuro -->
    <rect width="80" height="80" fill="#151520" />

    <!-- Definición de colores en estilo neón -->
    <!-- #FF00FF - Rosa neón -->
    <!-- #4050FF - Azul neón -->
    <!-- #FFDF00 - Dorado para monedas -->
    <!-- #25253A - Azul oscuro para sombras -->
    <!-- #1A1A25 - Azul muy oscuro para el fondo -->

    <!-- Cuerpo del cerdito - Cada rectángulo es un "píxel" -->
    <!-- Fila 1 - Cabeza (parte superior) -->
    <rect x="24" y="12" width="4" height="4" fill="#FF00FF" />
    <rect x="28" y="12" width="4" height="4" fill="#FF00FF" />
    <rect x="32" y="12" width="4" height="4" fill="#FF00FF" />

    <!-- Fila 2 - Cabeza y orejas -->
    <rect x="20" y="16" width="4" height="4" fill="#FF00FF" />
    <rect x="24" y="16" width="4" height="4" fill="#25253A" />
    <rect x="28" y="16" width="4" height="4" fill="#25253A" />
    <rect x="32" y="16" width="4" height="4" fill="#25253A" />
    <rect x="36" y="16" width="4" height="4" fill="#FF00FF" />

    <!-- Fila 3 - Cabeza con ojo -->
    <rect x="16" y="20" width="4" height="4" fill="#FF00FF" />
    <rect x="20" y="20" width="4" height="4" fill="#25253A" />
    <rect x="24" y="20" width="4" height="4" fill="#25253A" />
    <rect x="28" y="20" width="4" height="4" fill="#4050FF" /> <!-- Ojo -->
    <rect x="32" y="20" width="4" height="4" fill="#25253A" />
    <rect x="36" y="20" width="4" height="4" fill="#25253A" />
    <rect x="40" y="20" width="4" height="4" fill="#FF00FF" />

    <!-- Fila 4 - Cara completa -->
    <rect x="16" y="24" width="4" height="4" fill="#FF00FF" />
    <rect x="20" y="24" width="4" height="4" fill="#25253A" />
    <rect x="24" y="24" width="4" height="4" fill="#25253A" />
    <rect x="28" y="24" width="4" height="4" fill="#25253A" />
    <rect x="32" y="24" width="4" height="4" fill="#25253A" />
    <rect x="36" y="24" width="4" height="4" fill="#25253A" />
    <rect x="40" y="24" width="4" height="4" fill="#FF00FF" />
    <rect x="44" y="24" width="4" height="4" fill="#FF00FF" />
    <rect x="48" y="24" width="4" height="4" fill="#FF00FF" />
    <rect x="52" y="24" width="4" height="4" fill="#FF00FF" />

    <!-- Fila 5 - Cara con hocico -->
    <rect x="16" y="28" width="4" height="4" fill="#FF00FF" />
    <rect x="20" y="28" width="4" height="4" fill="#25253A" />
    <rect x="24" y="28" width="4" height="4" fill="#FF00FF" /> <!-- Nariz -->
    <rect x="28" y="28" width="4" height="4" fill="#25253A" />
    <rect x="32" y="28" width="4" height="4" fill="#25253A" />
    <rect x="36" y="28" width="4" height="4" fill="#25253A" />
    <rect x="40" y="28" width="4" height="4" fill="#25253A" />
    <rect x="44" y="28" width="4" height="4" fill="#25253A" />
    <rect x="48" y="28" width="4" height="4" fill="#25253A" />
    <rect x="52" y="28" width="4" height="4" fill="#FF00FF" />
    <rect x="56" y="28" width="4" height="4" fill="#FF00FF" />

    <!-- Fila 6 - Transición cabeza/cuerpo con ranura de monedas -->
    <rect x="16" y="32" width="4" height="4" fill="#FF00FF" />
    <rect x="20" y="32" width="4" height="4" fill="#25253A" />
    <rect x="24" y="32" width="4" height="4" fill="#25253A" />
    <rect x="28" y="32" width="4" height="4" fill="#25253A" />
    <rect x="32" y="32" width="4" height="4" fill="#25253A" />
    <rect x="36" y="32" width="4" height="4" fill="#25253A" />
    <rect x="40" y="32" width="4" height="4" fill="#25253A" />
    <rect x="44" y="32" width="4" height="4" fill="#4050FF" /> <!-- Ranura -->
    <rect x="48" y="32" width="4" height="4" fill="#4050FF" /> <!-- Ranura -->
    <rect x="52" y="32" width="4" height="4" fill="#25253A" />
    <rect x="56" y="32" width="4" height="4" fill="#FF00FF" />

    <!-- Fila 7 - Cuerpo superior -->
    <rect x="20" y="36" width="4" height="4" fill="#FF00FF" />
    <rect x="24" y="36" width="4" height="4" fill="#25253A" />
    <rect x="28" y="36" width="4" height="4" fill="#25253A" />
    <rect x="32" y="36" width="4" height="4" fill="#25253A" />
    <rect x="36" y="36" width="4" height="4" fill="#25253A" />
    <rect x="40" y="36" width="4" height="4" fill="#25253A" />
    <rect x="44" y="36" width="4" height="4" fill="#25253A" />
    <rect x="48" y="36" width="4" height="4" fill="#25253A" />
    <rect x="52" y="36" width="4" height="4" fill="#25253A" />
    <rect x="56" y="36" width="4" height="4" fill="#FF00FF" />
    <rect x="60" y="36" width="4" height="4" fill="#FF00FF" /> <!-- Cola -->

    <!-- Fila 8 - Cuerpo medio -->
    <rect x="20" y="40" width="4" height="4" fill="#FF00FF" />
    <rect x="24" y="40" width="4" height="4" fill="#25253A" />
    <rect x="28" y="40" width="4" height="4" fill="#25253A" />
    <rect x="32" y="40" width="4" height="4" fill="#25253A" />
    <rect x="36" y="40" width="4" height="4" fill="#25253A" />
    <rect x="40" y="40" width="4" height="4" fill="#25253A" />
    <rect x="44" y="40" width="4" height="4" fill="#25253A" />
    <rect x="48" y="40" width="4" height="4" fill="#25253A" />
    <rect x="52" y="40" width="4" height="4" fill="#25253A" />
    <rect x="56" y="40" width="4" height="4" fill="#FF00FF" />
    <rect x="60" y="40" width="4" height="4" fill="#FF00FF" /> <!-- Cola -->
    <rect x="64" y="40" width="4" height="4" fill="#FF00FF" /> <!-- Cola -->

    <!-- Fila 9 - Cuerpo inferior -->
    <rect x="20" y="44" width="4" height="4" fill="#FF00FF" />
    <rect x="24" y="44" width="4" height="4" fill="#25253A" />
    <rect x="28" y="44" width="4" height="4" fill="#25253A" />
    <rect x="32" y="44" width="4" height="4" fill="#25253A" />
    <rect x="36" y="44" width="4" height="4" fill="#25253A" />
    <rect x="40" y="44" width="4" height="4" fill="#25253A" />
    <rect x="44" y="44" width="4" height="4" fill="#25253A" />
    <rect x="48" y="44" width="4" height="4" fill="#25253A" />
    <rect x="52" y="44" width="4" height="4" fill="#25253A" />
    <rect x="56" y="44" width="4" height="4" fill="#FF00FF" />
    <rect x="64" y="44" width="4" height="4" fill="#FF00FF" /> <!-- Cola -->

    <!-- Fila 10 - Base del cuerpo -->
    <rect x="20" y="48" width="4" height="4" fill="#FF00FF" />
    <rect x="24" y="48" width="4" height="4" fill="#25253A" />
    <rect x="28" y="48" width="4" height="4" fill="#25253A" />
    <rect x="32" y="48" width="4" height="4" fill="#25253A" />
    <rect x="36" y="48" width="4" height="4" fill="#25253A" />
    <rect x="40" y="48" width="4" height="4" fill="#25253A" />
    <rect x="44" y="48" width="4" height="4" fill="#25253A" />
    <rect x="48" y="48" width="4" height="4" fill="#25253A" />
    <rect x="52" y="48" width="4" height="4" fill="#25253A" />
    <rect x="56" y="48" width="4" height="4" fill="#FF00FF" />

    <!-- Fila 11 - Patas -->
    <rect x="24" y="52" width="4" height="4" fill="#FF00FF" />
    <rect x="28" y="52" width="4" height="4" fill="#FF00FF" />
    <rect x="32" y="52" width="4" height="4" fill="#FF00FF" />
    <rect x="44" y="52" width="4" height="4" fill="#FF00FF" />
    <rect x="48" y="52" width="4" height="4" fill="#FF00FF" />
    <rect x="52" y="52" width="4" height="4" fill="#FF00FF" />

    <!-- Fila 12 - Base de las patas -->
    <rect x="24" y="56" width="4" height="4" fill="#FF00FF" />
    <rect x="32" y="56" width="4" height="4" fill="#FF00FF" />
    <rect x="44" y="56" width="4" height="4" fill="#FF00FF" />
    <rect x="52" y="56" width="4" height="4" fill="#FF00FF" />

    <!-- Monedas cayendo -->
    <!-- Moneda 1 -->
    <rect x="48" y="4" width="4" height="4" fill="#FFDF00" />
    <rect x="52" y="4" width="4" height="4" fill="#FFDF00" />
    <rect x="48" y="8" width="4" height="4" fill="#FFDF00" />
    <rect x="52" y="8" width="4" height="4" fill="#FFDF00" />

    <!-- Moneda 2 -->
    <rect x="56" y="12" width="4" height="4" fill="#FFDF00" />
    <rect x="60" y="12" width="4" height="4" fill="#FFDF00" />
    <rect x="56" y="16" width="4" height="4" fill="#FFDF00" />
    <rect x="60" y="16" width="4" height="4" fill="#FFDF00" />

    <!-- Moneda 3 -->
    <rect x="64" y="20" width="4" height="4" fill="#FFDF00" />
    <rect x="68" y="20" width="4" height="4" fill="#FFDF00" />
    <rect x="64" y="24" width="4" height="4" fill="#FFDF00" />
    <rect x="68" y="24" width="4" height="4" fill="#FFDF00" />
</svg>